#N canvas 407 98 803 667 12;
#X obj 23 19 inlet;
#X obj 23 624 outlet;
#X obj 43 97 unpack f f;
#X obj 110 121 route 0;
#X obj 359 70 text define \$0-list;
#X obj 142 173 f;
#X obj 174 245 != -1;
#X obj 142 197 text search \$0-list;
#X obj 142 298 text delete \$0-list;
#X obj 23 601 spigot;
#X msg 62 575 0;
#X msg 94 575 1;
#X obj 110 148 t b b;
#X obj 188 400 f;
#X obj 188 424 text search \$0-list;
#X obj 188 447 route -1;
#X obj 188 470 t b b;
#X obj 220 499 f;
#X obj 23 43 t l l l b;
#X obj 199 73 unpack f f;
#X text 245 146 Processing a keyup;
#X text 287 195 Remove the line containing that keyup from the list.
;
#X text 285 219 Then let the original message through.;
#X text 241 374 Processing a keypress.;
#X text 337 423 If it’s not already registered \, let the message
through and add it to the list of currently pressed keys.;
#X text 337 471 If it’s already registered: do nothing \, and prevent
the duplicate message from passing.;
#X text 359 35 Sadly a [text] object is the most convenient data structure
for this purpose.;
#X obj 188 375 t b;
#X obj 142 221 t f f;
#X obj 142 271 spigot;
#X obj 220 523 text insert \$0-list 100000;
#X connect 0 0 18 0;
#X connect 2 1 3 0;
#X connect 3 0 12 0;
#X connect 3 1 27 0;
#X connect 5 0 7 0;
#X connect 6 0 29 1;
#X connect 7 0 28 0;
#X connect 9 0 1 0;
#X connect 10 0 9 1;
#X connect 11 0 9 1;
#X connect 12 0 11 0;
#X connect 12 1 5 0;
#X connect 13 0 14 0;
#X connect 14 0 15 0;
#X connect 15 0 16 0;
#X connect 16 0 11 0;
#X connect 16 1 17 0;
#X connect 17 0 30 0;
#X connect 18 0 9 0;
#X connect 18 1 2 0;
#X connect 18 2 19 0;
#X connect 18 3 10 0;
#X connect 19 0 13 1;
#X connect 19 0 5 1;
#X connect 19 0 17 1;
#X connect 27 0 13 0;
#X connect 28 0 29 0;
#X connect 28 1 6 0;
#X connect 29 0 8 0;
