#N canvas 444 23 703 664 12;
#X msg 88 377 listen \$1;
#X obj 123 177 + 1;
#X msg 110 142 10000;
#X obj 92 99 bng 15 250 50 0 empty empty empty 17 7 0 10 -262144 -1
-1;
#X obj 92 177 f;
#X floatatom 114 202 5 0 0 0 - - -;
#X msg 110 309 send \$1;
#X msg 90 281 connect localhost \$1;
#X obj 88 402 netreceive -u;
#X obj 90 336 netsend -u;
#X obj 88 432 ==;
#X obj 88 465 select 1;
#X text 308 513 Try the next number;
#X obj 257 512 t b b;
#X msg 289 536 listen -1;
#X text 118 433 Expect a single message identical to the port number.
;
#X text 120 588 Clean up after ourselves and output the free port number.
;
#X msg 29 543 disconnect;
#X obj 89 623 outlet;
#X obj 110 120 loadbang;
#X obj 25 37 inlet;
#X obj 25 65 t bang;
#X obj 222 37 inlet;
#X obj 222 65 t float;
#X text 346 151 Free UDP Port Finder;
#X text 17 11 Search (bang);
#X text 219 11 Starting Port Number;
#X text 324 477 timeout before trying the next number.;
#X obj 257 477 delay 50;
#X msg 213 477 stop;
#X obj 89 588 f;
#X obj 88 498 t b b b b;
#X obj 90 235 t f f f f b f b;
#X msg 192 259 disconnect;
#X text 347 172 When banged \, iterates through ports \, checks to
see if they’re free \, and outputs the number of the first free port.
It results in some console spam \, but I can’t see a way to avoid
it., f 40;
#X connect 0 0 8 0;
#X connect 1 0 4 1;
#X connect 2 0 4 1;
#X connect 3 0 4 0;
#X connect 4 0 1 0;
#X connect 4 0 5 0;
#X connect 4 0 32 0;
#X connect 6 0 9 0;
#X connect 7 0 9 0;
#X connect 8 0 10 0;
#X connect 10 0 11 0;
#X connect 11 0 31 0;
#X connect 11 1 13 0;
#X connect 13 0 4 0;
#X connect 13 1 14 0;
#X connect 14 0 8 0;
#X connect 17 0 9 0;
#X connect 19 0 2 0;
#X connect 20 0 21 0;
#X connect 21 0 4 0;
#X connect 22 0 23 0;
#X connect 23 0 4 1;
#X connect 28 0 13 0;
#X connect 29 0 28 0;
#X connect 30 0 18 0;
#X connect 31 0 30 0;
#X connect 31 1 14 0;
#X connect 31 2 17 0;
#X connect 31 3 29 0;
#X connect 32 0 6 0;
#X connect 32 1 7 0;
#X connect 32 2 0 0;
#X connect 32 3 10 1;
#X connect 32 4 28 0;
#X connect 32 5 30 1;
#X connect 32 6 33 0;
#X connect 33 0 9 0;
