#N canvas 530 189 552 309 12;
#X obj 26 43 inlet;
#X obj 132 43 inlet;
#X obj 245 43 inlet;
#X text 23 21 Point;
#X text 245 20 Bottom Left Point;
#X text 128 20 Top Left Point;
#X obj 26 264 outlet;
#X obj 26 132 unpack f f;
#X obj 132 132 unpack f f;
#X obj 245 131 unpack f f;
#X obj 26 194 expr ($i1 >= $i3) && ($i1 <= $i5) && ($i2 >= $i4) &&
($i2 <= $i6), f 65;
#X obj 391 42 loadbang;
#X obj 364 131 f \$1;
#X obj 401 131 f \$2;
#X obj 437 131 f \$3;
#X obj 474 131 f \$4;
#X obj 391 104 t b b b b;
#X obj 391 81 spigot 1;
#X msg 454 81 0;
#X connect 0 0 7 0;
#X connect 1 0 8 0;
#X connect 1 0 18 0;
#X connect 2 0 9 0;
#X connect 2 0 18 0;
#X connect 7 0 10 0;
#X connect 7 1 10 1;
#X connect 8 0 10 2;
#X connect 8 1 10 3;
#X connect 9 0 10 4;
#X connect 9 1 10 5;
#X connect 10 0 6 0;
#X connect 11 0 17 0;
#X connect 12 0 10 2;
#X connect 13 0 10 3;
#X connect 14 0 10 4;
#X connect 15 0 10 5;
#X connect 16 0 12 0;
#X connect 16 1 13 0;
#X connect 16 2 14 0;
#X connect 16 3 15 0;
#X connect 17 0 16 0;
#X connect 18 0 17 1;
