#N canvas 337 61 804 671 12;
#X obj 17 23 inlet;
#X obj 40 606 outlet;
#X obj 17 47 route monome draw;
#X obj 17 71 route grid;
#X obj 17 93 route key;
#X obj 49 187 monome/grid/inrect;
#X obj 17 115 t l l;
#X obj 49 138 unpack f f f;
#X obj 49 161 pack f f;
#X obj 451 70 f \$1;
#X obj 458 13 loadbang;
#X obj 458 35 t b b b;
#X obj 214 138 pack f f;
#X obj 195 39 r \$0-col;
#X obj 267 115 + 8;
#X obj 143 138 pack f 0;
#X obj 195 63 t f f f;
#X obj 17 215 spigot;
#X obj 422 602 outlet;
#X obj 516 94 s \$0-row;
#X obj 516 70 f \$2;
#X obj 267 92 f 0;
#X obj 261 39 r \$0-row;
#X obj 17 314 list split 1;
#X obj 36 407 monome/utils/iterbag;
#X msg 37 377 iter;
#X obj 17 343 t b b l b;
#X obj 17 435 f;
#X text 109 366 Track multiple presses \, with retriggering on keyups
, f 32;
#X obj 451 94 s \$0-col;
#X msg 45 435 -1;
#X text 79 436 Default to -1 for none pressed;
#N canvas 0 23 369 263 key-to-val 0;
#X msg 32 115 4;
#X msg 67 115 3;
#X msg 104 115 2;
#X msg 138 115 1;
#X msg 175 115 -1;
#X msg 210 115 -2;
#X msg 246 114 -3;
#X msg 282 114 -4;
#X obj 96 54 inlet;
#X obj 102 183 outlet;
#X obj 95 81 sel 0 1 2 3 4 5 6 7;
#X msg 316 114 0;
#X connect 0 0 9 0;
#X connect 1 0 9 0;
#X connect 2 0 9 0;
#X connect 3 0 9 0;
#X connect 4 0 9 0;
#X connect 5 0 9 0;
#X connect 6 0 9 0;
#X connect 7 0 9 0;
#X connect 8 0 10 0;
#X connect 10 0 0 0;
#X connect 10 1 1 0;
#X connect 10 2 2 0;
#X connect 10 3 3 0;
#X connect 10 4 4 0;
#X connect 10 5 5 0;
#X connect 10 6 6 0;
#X connect 10 7 7 0;
#X connect 10 8 11 0;
#X connect 11 0 9 0;
#X restore 17 482 pd key-to-val;
#X obj 17 533 s \$0-draw;
#X obj 422 354 == 0;
#X obj 574 354 < 0;
#X obj 422 291 f 0;
#X text 456 292 Current value (-4 \, 4);
#N canvas 99 91 279 441 zero 0;
#X obj 23 25 inlet;
#X obj 23 393 outlet;
#X obj 23 127 until;
#X msg 23 104 8;
#X obj 23 151 f 0;
#X obj 52 151 + 1;
#X msg 81 151 0;
#X obj 23 197 pack f f;
#X obj 23 173 t f f;
#X obj 23 220 route 3 4;
#X obj 23 51 sel 1;
#X obj 23 77 t b b;
#X obj 23 337 pack f f 4;
#X obj 146 229 r \$0-col;
#X obj 138 204 r \$0-row;
#X obj 111 337 pack f f 0;
#X obj 23 313 swap;
#X obj 111 312 swap;
#X obj 111 288 + 0;
#X obj 23 289 + 0;
#X obj 111 263 unpack f f;
#X connect 0 0 10 0;
#X connect 2 0 4 0;
#X connect 3 0 2 0;
#X connect 4 0 5 0;
#X connect 4 0 8 0;
#X connect 5 0 4 1;
#X connect 6 0 4 1;
#X connect 7 0 9 0;
#X connect 8 0 7 0;
#X connect 8 1 7 1;
#X connect 9 0 19 0;
#X connect 9 1 19 0;
#X connect 9 2 20 0;
#X connect 10 0 11 0;
#X connect 11 0 3 0;
#X connect 11 1 6 0;
#X connect 12 0 1 0;
#X connect 13 0 16 1;
#X connect 13 0 17 1;
#X connect 14 0 18 1;
#X connect 14 0 19 1;
#X connect 15 0 1 0;
#X connect 16 0 12 0;
#X connect 16 1 12 1;
#X connect 17 0 15 0;
#X connect 17 1 15 1;
#X connect 18 0 17 0;
#X connect 19 0 16 0;
#X connect 20 0 18 0;
#X restore 422 382 pd zero;
#N canvas 512 83 480 695 positive 0;
#X obj 34 50 inlet;
#X obj 219 52 inlet;
#X obj 34 141 until;
#X msg 34 118 8;
#X obj 34 165 f 0;
#X obj 63 165 + 1;
#X msg 92 165 0;
#X obj 34 210 < 4;
#X obj 34 187 t f f;
#X obj 34 234 pack f f;
#X obj 34 73 sel 1;
#X obj 123 259 f;
#X obj 64 290 <;
#X obj 126 290 >=;
#X obj 34 258 route 0 1;
#X obj 64 334 f;
#X text 155 258 Pressed Key (0 \, 7);
#X obj 126 336 f;
#X obj 64 312 sel 1;
#X obj 126 313 sel 1;
#X obj 126 360 t f f;
#X obj 158 383 expr max(15 - (($i1 - $i2) * 4) \, 4);
#X obj 85 608 outlet;
#X obj 34 96 t b b;
#X obj 29 498 +;
#X obj 29 522 swap;
#X obj 117 497 +;
#X obj 117 521 swap;
#X obj 29 546 pack f f 0;
#X obj 117 546 pack f f f;
#X obj 144 413 r \$0-row;
#X obj 152 437 r \$0-col;
#X connect 0 0 10 0;
#X connect 1 0 11 0;
#X connect 2 0 4 0;
#X connect 3 0 2 0;
#X connect 4 0 5 0;
#X connect 4 0 8 0;
#X connect 5 0 4 1;
#X connect 6 0 4 1;
#X connect 7 0 9 0;
#X connect 8 0 7 0;
#X connect 8 1 9 1;
#X connect 8 1 15 1;
#X connect 8 1 17 1;
#X connect 9 0 14 0;
#X connect 10 0 23 0;
#X connect 11 0 12 1;
#X connect 11 0 13 1;
#X connect 11 0 21 1;
#X connect 12 0 18 0;
#X connect 13 0 19 0;
#X connect 14 0 24 0;
#X connect 14 1 12 0;
#X connect 14 1 13 0;
#X connect 15 0 24 0;
#X connect 17 0 20 0;
#X connect 18 0 15 0;
#X connect 19 0 17 0;
#X connect 20 0 26 0;
#X connect 20 1 21 0;
#X connect 21 0 29 2;
#X connect 23 0 3 0;
#X connect 23 1 6 0;
#X connect 24 0 25 0;
#X connect 25 0 28 0;
#X connect 25 1 28 1;
#X connect 26 0 27 0;
#X connect 27 0 29 0;
#X connect 27 1 29 1;
#X connect 28 0 22 0;
#X connect 29 0 22 0;
#X connect 30 0 24 1;
#X connect 30 0 26 1;
#X connect 31 0 25 1;
#X connect 31 0 27 1;
#X restore 484 382 pd positive;
#X obj 484 354 > 0;
#X obj 422 265 t b;
#N canvas 227 23 440 575 negative 0;
#X obj 34 26 inlet;
#X obj 219 28 inlet;
#X obj 34 124 until;
#X msg 34 101 8;
#X obj 34 148 f 0;
#X obj 63 148 + 1;
#X msg 92 148 0;
#X obj 34 170 t f f;
#X obj 34 217 pack f f;
#X obj 34 50 sel 1;
#X obj 123 242 f;
#X obj 34 241 route 0 1;
#X obj 64 317 f;
#X text 155 242 Pressed Key (0 \, 7);
#X obj 126 319 f;
#X obj 64 295 sel 1;
#X obj 126 296 sel 1;
#X obj 126 343 t f f;
#X obj 74 531 outlet;
#X obj 34 74 t b b;
#X obj 64 273 >;
#X obj 126 273 <=;
#X obj 34 193 >= 4;
#X obj 158 366 expr max(15 - (($i2 - $i1) * 4) \, 4);
#X obj 33 439 +;
#X obj 33 463 swap;
#X obj 121 438 +;
#X obj 121 462 swap;
#X obj 33 487 pack f f 0;
#X obj 121 487 pack f f f;
#X obj 153 402 r \$0-row;
#X obj 161 427 r \$0-col;
#X connect 0 0 9 0;
#X connect 1 0 10 0;
#X connect 2 0 4 0;
#X connect 3 0 2 0;
#X connect 4 0 5 0;
#X connect 4 0 7 0;
#X connect 5 0 4 1;
#X connect 6 0 4 1;
#X connect 7 0 22 0;
#X connect 7 1 8 1;
#X connect 7 1 12 1;
#X connect 7 1 14 1;
#X connect 8 0 11 0;
#X connect 9 0 19 0;
#X connect 10 0 20 1;
#X connect 10 0 21 1;
#X connect 10 0 23 1;
#X connect 11 0 24 0;
#X connect 11 1 20 0;
#X connect 11 1 21 0;
#X connect 12 0 24 0;
#X connect 14 0 17 0;
#X connect 15 0 12 0;
#X connect 16 0 14 0;
#X connect 17 0 26 0;
#X connect 17 1 23 0;
#X connect 19 0 3 0;
#X connect 19 1 6 0;
#X connect 20 0 15 0;
#X connect 21 0 16 0;
#X connect 22 0 8 0;
#X connect 23 0 29 2;
#X connect 24 0 25 0;
#X connect 25 0 28 0;
#X connect 25 1 28 1;
#X connect 26 0 27 0;
#X connect 27 0 29 0;
#X connect 27 1 29 1;
#X connect 28 0 18 0;
#X connect 29 0 18 0;
#X connect 30 0 24 1;
#X connect 30 0 26 1;
#X connect 31 0 25 1;
#X connect 31 0 27 1;
#X restore 574 382 pd negative;
#X obj 422 438 oscformat monome grid led level set;
#X obj 422 242 r \$0-draw;
#X obj 17 506 t b f f;
#X obj 17 458 t f f;
#X obj 95 71 s \$0-draw;
#X obj 415 13 bng 15 250 50 0 empty empty empty 17 7 0 10 -262144 -1
-1;
#X obj 57 262 - 0;
#X obj 17 238 unpack f f f;
#X obj 17 286 pack f f f;
#X obj 85 262 r \$0-row;
#X text 154 264 Handle y offset;
#X obj 422 319 t f;
#X connect 0 0 2 0;
#X connect 2 0 3 0;
#X connect 2 1 47 0;
#X connect 3 0 4 0;
#X connect 4 0 6 0;
#X connect 5 0 17 1;
#X connect 6 0 17 0;
#X connect 6 1 7 0;
#X connect 7 0 8 0;
#X connect 7 1 8 1;
#X connect 8 0 5 0;
#X connect 9 0 29 0;
#X connect 10 0 11 0;
#X connect 11 1 9 0;
#X connect 11 2 20 0;
#X connect 12 0 5 2;
#X connect 13 0 16 0;
#X connect 14 0 12 1;
#X connect 15 0 5 1;
#X connect 16 0 15 0;
#X connect 16 1 12 0;
#X connect 16 2 21 0;
#X connect 17 0 50 0;
#X connect 20 0 19 0;
#X connect 21 0 14 0;
#X connect 22 0 21 1;
#X connect 22 0 15 1;
#X connect 23 1 26 0;
#X connect 24 0 27 1;
#X connect 25 0 24 0;
#X connect 26 0 27 0;
#X connect 26 1 25 0;
#X connect 26 2 24 0;
#X connect 26 3 30 0;
#X connect 27 0 46 0;
#X connect 30 0 27 1;
#X connect 32 0 45 0;
#X connect 34 0 38 0;
#X connect 35 0 42 0;
#X connect 36 0 54 0;
#X connect 38 0 43 0;
#X connect 39 0 43 0;
#X connect 40 0 39 0;
#X connect 41 0 36 0;
#X connect 42 0 43 0;
#X connect 43 0 18 0;
#X connect 44 0 41 0;
#X connect 45 0 33 0;
#X connect 45 1 1 0;
#X connect 45 2 36 1;
#X connect 46 0 32 0;
#X connect 46 1 39 1;
#X connect 46 1 42 1;
#X connect 48 0 11 0;
#X connect 49 0 51 1;
#X connect 50 0 51 0;
#X connect 50 1 49 0;
#X connect 50 2 51 2;
#X connect 51 0 23 0;
#X connect 52 0 49 1;
#X connect 54 0 34 0;
#X connect 54 0 35 0;
#X connect 54 0 40 0;
