#N canvas 574 92 628 643 12;
#X obj 13 19 inlet;
#X obj 20 587 outlet;
#X obj 13 42 route monome draw;
#X obj 13 66 route grid;
#X obj 13 90 route key;
#X obj 247 18 loadbang;
#X obj 228 21 bng 15 250 50 0 empty empty empty 17 7 0 10 -262144 -1
-1;
#X obj 270 66 f \$1;
#X obj 333 66 f \$2;
#X obj 396 66 f \$3;
#X obj 270 90 s \$0-col;
#X obj 333 90 s \$0-row;
#X obj 13 114 t l l;
#X obj 45 137 unpack f f f;
#X obj 45 183 ==;
#X obj 85 183 ==;
#X obj 63 159 r \$0-col;
#X obj 127 159 r \$0-row;
#X obj 45 207 &&;
#X obj 13 231 spigot;
#X obj 13 253 unpack f f f;
#X obj 247 311 outlet;
#X obj 247 144 r \$0-level;
#X obj 247 288 oscformat monome grid led level set;
#X obj 247 241 pack f f f;
#X obj 247 191 t b f;
#X obj 258 215 r \$0-col;
#X obj 323 215 r \$0-row;
#X obj 247 42 t b b b;
#X obj 247 113 s \$0-ready;
#X obj 247 264 spigot 0;
#X msg 309 264 1;
#X obj 340 264 r \$0-ready;
#X obj 13 277 sel 1 0;
#X msg 102 66 bang;
#X obj 102 88 s \$0-level;
#X obj 230 390 del;
#X obj 396 139 s \$0-multitime;
#X obj 281 365 r \$0-multitime;
#X obj 68 512 timer;
#X msg 68 537 press \$1;
#X obj 13 306 t b b b b b;
#X obj 122 307 t b b b b b;
#X msg 13 334 15;
#X obj 13 359 s \$0-level;
#X msg 121 335 4;
#X obj 247 168 f 4;
#X obj 277 439 + 1;
#X msg 230 537 multi \$1;
#X msg 23 537 1;
#X msg 143 537 0;
#X obj 230 463 f;
#X obj 230 413 t b b;
#X msg 188 390 stop;
#X obj 248 439 f 1;
#X msg 307 439 1;
#X obj 396 90 select 0;
#X msg 396 114 120;
#X connect 0 0 2 0;
#X connect 2 0 3 0;
#X connect 2 1 34 0;
#X connect 3 0 4 0;
#X connect 4 0 12 0;
#X connect 5 0 28 0;
#X connect 6 0 28 0;
#X connect 7 0 10 0;
#X connect 8 0 11 0;
#X connect 9 0 56 0;
#X connect 12 0 19 0;
#X connect 12 1 13 0;
#X connect 13 0 14 0;
#X connect 13 1 15 0;
#X connect 14 0 18 0;
#X connect 15 0 18 1;
#X connect 16 0 14 1;
#X connect 17 0 15 1;
#X connect 18 0 19 1;
#X connect 19 0 20 0;
#X connect 20 2 33 0;
#X connect 22 0 46 0;
#X connect 23 0 21 0;
#X connect 24 0 30 0;
#X connect 25 0 24 0;
#X connect 25 1 24 2;
#X connect 26 0 24 0;
#X connect 27 0 24 1;
#X connect 28 0 29 0;
#X connect 28 1 7 0;
#X connect 28 2 9 0;
#X connect 28 2 8 0;
#X connect 30 0 23 0;
#X connect 31 0 30 1;
#X connect 32 0 31 0;
#X connect 33 0 41 0;
#X connect 33 1 42 0;
#X connect 34 0 35 0;
#X connect 36 0 52 0;
#X connect 38 0 36 1;
#X connect 39 0 40 0;
#X connect 40 0 1 0;
#X connect 41 0 43 0;
#X connect 41 2 39 0;
#X connect 41 3 53 0;
#X connect 41 4 49 0;
#X connect 42 0 45 0;
#X connect 42 1 39 1;
#X connect 42 2 36 0;
#X connect 42 3 54 0;
#X connect 42 4 50 0;
#X connect 43 0 44 0;
#X connect 45 0 44 0;
#X connect 46 0 25 0;
#X connect 47 0 54 1;
#X connect 48 0 1 0;
#X connect 49 0 1 0;
#X connect 50 0 1 0;
#X connect 51 0 48 0;
#X connect 52 0 51 0;
#X connect 52 1 55 0;
#X connect 53 0 36 0;
#X connect 54 0 47 0;
#X connect 54 0 51 1;
#X connect 55 0 54 1;
#X connect 56 0 57 0;
#X connect 56 1 37 0;
#X connect 57 0 37 0;
