#N canvas 120 23 1053 713 12;
#X obj 28 72 route key;
#X text 440 47 Redraw row;
#X obj 437 120 until;
#X obj 524 388 sel 0 1 2 3 4 5 6 7 8 9 10 11;
#X obj 524 365 % 12;
#X obj 437 69 t b b;
#X obj 437 164 f 0;
#X obj 465 164 + 1;
#X obj 467 313 t f f;
#X obj 524 340 + 0;
#X text 555 340 Row scale offset;
#X text 579 239 Iterate over active note table;
#X obj 437 262 route 1 0;
#X obj 74 329 unpack f f;
#X obj 88 383 swap;
#X obj 437 290 f;
#X obj 467 290 f;
#X obj 437 187 t f f;
#X msg 591 441 0;
#X msg 628 441 4;
#X obj 28 21 inlet;
#X obj 88 487 tabwrite \$0-keystate;
#X obj 437 239 tabread \$0-keystate;
#X obj 28 254 -;
#X obj 57 254 r \$0-col;
#X obj 437 94 f;
#X obj 466 94 r \$0-len;
#X obj 542 315 r \$0-offset;
#X obj 31 669 outlet;
#X obj 28 304 t b l l;
#X obj 446 669 outlet;
#X text 503 671 Osc to grid;
#X text 85 670 (i \, state) pairs;
#X obj 467 470 pack f f f;
#X obj 500 445 r \$0-row;
#X obj 467 444 +;
#X obj 438 552 +;
#X obj 485 420 r \$0-col;
#X obj 456 529 r \$0-col;
#X obj 475 554 r \$0-row;
#X msg 467 494 \$1 \$2 \$3;
#X msg 664 441 8;
#X obj 28 98 t l l;
#X obj 28 206 spigot;
#X obj 234 279 r \$0-table;
#X msg 180 303 set \$1;
#X obj 671 173 r \$0-table;
#X msg 671 196 set \$1;
#X obj 539 201 f;
#X obj 578 173 r \$0-offset;
#X msg 539 173 bang;
#X obj 74 354 + 0;
#X obj 233 328 f;
#X obj 262 328 r \$0-offset;
#X msg 233 303 bang;
#X msg 494 164 0;
#X obj 437 212 + 0;
#X text 539 134 If a custom table is used \, read it from the given
offset.;
#X obj 31 638 pack f f;
#X obj 60 179 monome/grid/inrect;
#N canvas 515 207 450 300 args-to-rect-points 0;
#X obj 20 24 r \$0-col;
#X obj 71 47 r \$0-row;
#X obj 30 47 t b f;
#X obj 40 71 t b f;
#X obj 17 100 pack f f f;
#X obj 149 131 unpack f f f;
#X obj 17 131 unpack f f f;
#X obj 17 183 pack f f;
#X obj 149 195 pack f f;
#X obj 22 230 outlet;
#X obj 149 230 outlet;
#X obj 149 161 expr ($i1 + $i2) - 1;
#X obj 82 71 r \$0-len;
#X connect 0 0 4 0;
#X connect 1 0 2 0;
#X connect 2 0 4 0;
#X connect 2 1 4 1;
#X connect 3 0 4 0;
#X connect 3 1 4 2;
#X connect 4 0 6 0;
#X connect 4 0 5 0;
#X connect 5 0 11 0;
#X connect 5 1 8 1;
#X connect 5 2 11 1;
#X connect 6 0 7 0;
#X connect 6 1 7 1;
#X connect 7 0 9 0;
#X connect 8 0 10 0;
#X connect 11 0 8 0;
#X connect 12 0 3 0;
#X restore 82 153 pd args-to-rect-points;
#X obj 60 122 list split 2;
#X obj 28 278 pack f f;
#X obj 28 230 unpack f f f;
#X obj 28 49 route grid;
#X obj 446 645 oscformat monome grid led level set;
#X text 139 370 Increment on keypress \, decrement on keyup;
#N canvas 0 23 450 300 init-reset 0;
#X obj 205 25 table \$0-keystate;
#X obj 18 104 f \$1;
#X obj 81 104 f \$2;
#X obj 152 103 f \$3;
#X obj 225 103 f \$4;
#X obj 18 127 s \$0-col;
#X obj 81 127 s \$0-row;
#X obj 152 126 s \$0-len;
#X obj 225 126 s \$0-offset;
#X obj 126 46 t b b;
#X obj 126 24 loadbang;
#X obj 174 48 bng 15 250 50 0 empty empty empty 17 7 0 10 -262144 -1
-1;
#X obj 389 154 symbol;
#X obj 357 208 s \$0-table;
#X obj 357 130 t s b;
#X obj 357 105 symbol \$5;
#X obj 357 178 select s;
#X obj 20 18 inlet;
#X obj 30 224 outlet;
#X connect 1 0 5 0;
#X connect 2 0 6 0;
#X connect 3 0 7 0;
#X connect 4 0 8 0;
#X connect 9 0 18 0;
#X connect 9 1 4 0;
#X connect 9 1 3 0;
#X connect 9 1 2 0;
#X connect 9 1 1 0;
#X connect 9 1 15 0;
#X connect 10 0 9 0;
#X connect 11 0 9 0;
#X connect 12 0 16 1;
#X connect 14 0 16 0;
#X connect 14 1 12 0;
#X connect 15 0 14 0;
#X connect 16 1 13 0;
#X connect 17 0 9 0;
#X restore 170 70 pd init-reset;
#X obj 239 437 tabread \$0-keystate;
#X msg 239 411 set \$1;
#X obj 88 408 sel 1 0;
#X obj 88 462 expr max($i2 + $i1 \, 0);
#X msg 120 437 -1;
#X msg 88 437 1;
#X obj 84 614 > 0;
#X obj 31 590 unpack f f;
#X obj 31 615 + 0;
#X obj 70 21 route monome draw reset level;
#X obj 750 352 route c natural accidental pressed;
#X obj 220 46 s \$0-levels;
#X obj 750 328 r \$0-levels;
#X msg 750 384 set \$1;
#X msg 808 384 set \$1;
#X msg 865 384 set \$1;
#X obj 438 577 pack f f 15;
#X msg 438 600 \$1 \$2 \$3;
#X text 748 303 Levels configuration;
#X connect 0 0 42 0;
#X connect 2 0 6 0;
#X connect 3 0 41 0;
#X connect 3 1 18 0;
#X connect 3 2 19 0;
#X connect 3 3 18 0;
#X connect 3 4 19 0;
#X connect 3 5 19 0;
#X connect 3 6 18 0;
#X connect 3 7 19 0;
#X connect 3 8 18 0;
#X connect 3 9 19 0;
#X connect 3 10 18 0;
#X connect 3 11 19 0;
#X connect 4 0 3 0;
#X connect 5 0 25 0;
#X connect 5 1 55 0;
#X connect 6 0 7 0;
#X connect 6 0 17 0;
#X connect 7 0 6 1;
#X connect 8 0 35 0;
#X connect 8 1 9 0;
#X connect 9 0 4 0;
#X connect 12 0 15 0;
#X connect 12 1 16 0;
#X connect 13 0 51 0;
#X connect 13 1 14 1;
#X connect 14 0 70 0;
#X connect 14 1 21 1;
#X connect 14 1 68 0;
#X connect 15 0 36 0;
#X connect 16 0 8 0;
#X connect 17 0 56 0;
#X connect 17 1 16 1;
#X connect 17 1 15 1;
#X connect 18 0 33 2;
#X connect 19 0 33 2;
#X connect 20 0 77 0;
#X connect 22 0 12 0;
#X connect 23 0 62 0;
#X connect 24 0 23 1;
#X connect 25 0 2 0;
#X connect 26 0 25 1;
#X connect 27 0 9 1;
#X connect 29 0 5 0;
#X connect 29 1 75 0;
#X connect 29 2 13 0;
#X connect 33 0 40 0;
#X connect 34 0 33 1;
#X connect 35 0 33 0;
#X connect 36 0 84 0;
#X connect 37 0 35 1;
#X connect 38 0 36 1;
#X connect 39 0 84 1;
#X connect 40 0 65 0;
#X connect 41 0 33 2;
#X connect 42 0 43 0;
#X connect 42 1 61 0;
#X connect 43 0 63 0;
#X connect 44 0 45 0;
#X connect 44 0 54 0;
#X connect 44 0 69 0;
#X connect 45 0 21 0;
#X connect 46 0 47 0;
#X connect 46 0 50 0;
#X connect 47 0 22 0;
#X connect 48 0 56 1;
#X connect 49 0 48 1;
#X connect 50 0 48 0;
#X connect 51 0 14 0;
#X connect 52 0 51 1;
#X connect 52 0 76 1;
#X connect 53 0 52 1;
#X connect 54 0 52 0;
#X connect 55 0 6 1;
#X connect 56 0 22 0;
#X connect 58 0 28 0;
#X connect 59 0 43 1;
#X connect 60 0 59 1;
#X connect 60 1 59 2;
#X connect 61 0 59 0;
#X connect 62 0 29 0;
#X connect 63 0 23 0;
#X connect 63 2 62 1;
#X connect 64 0 0 0;
#X connect 65 0 30 0;
#X connect 67 0 5 0;
#X connect 68 0 71 1;
#X connect 69 0 68 0;
#X connect 70 0 73 0;
#X connect 70 1 72 0;
#X connect 71 0 21 0;
#X connect 71 0 74 0;
#X connect 72 0 71 0;
#X connect 73 0 71 0;
#X connect 74 0 58 1;
#X connect 75 0 76 0;
#X connect 76 0 58 0;
#X connect 77 0 64 0;
#X connect 77 1 5 0;
#X connect 77 2 67 0;
#X connect 77 3 79 0;
#X connect 78 0 81 0;
#X connect 78 1 82 0;
#X connect 78 2 83 0;
#X connect 78 3 84 2;
#X connect 80 0 78 0;
#X connect 81 0 41 0;
#X connect 82 0 18 0;
#X connect 83 0 19 0;
#X connect 84 0 85 0;
#X connect 85 0 65 0;
