#N canvas 284 44 801 734 12;
#X obj 16 87 route key;
#X obj 502 122 f 0;
#X obj 16 222 spigot;
#X obj 441 134 until;
#X obj 441 159 f 0;
#X obj 470 159 + 1;
#X msg 499 159 0;
#X obj 441 45 t b b b;
#X msg 480 304 0;
#X obj 480 250 sel 1;
#X obj 525 250 sel 1;
#X obj 525 297 f;
#X msg 525 274 bang;
#X obj 441 192 t b f f f f, f 14;
#X obj 39 699 outlet;
#X obj 16 532 t b f f;
#X obj 16 15 inlet;
#X obj 441 17 r \$0-draw;
#X obj 520 98 r \$0-current-key;
#X obj 441 491 outlet;
#X obj 185 16 loadbang;
#X obj 167 20 bng 15 250 50 0 empty empty empty 17 7 0 10 -262144 -1
-1;
#X obj 205 91 f \$1;
#X obj 205 116 s \$0-col;
#X obj 269 92 f \$2;
#X obj 269 115 s \$0-row;
#X obj 334 92 f \$3;
#X obj 334 115 s \$0-length;
#X obj 441 110 f;
#X obj 459 69 r \$0-length;
#X obj 62 584 s \$0-current-key;
#X obj 16 558 s \$0-draw;
#X obj 48 136 unpack f f f;
#X obj 16 112 t l l;
#X obj 48 161 pack f f;
#X obj 69 191 monome/grid/inrect;
#N canvas 176 160 305 300 args-to-rect-points 0;
#X obj 20 24 r \$0-col;
#X obj 71 47 r \$0-row;
#X obj 82 71 r \$0-length;
#X obj 30 47 t b f;
#X obj 40 71 t b f;
#X obj 17 100 pack f f f;
#X obj 109 131 unpack f f f;
#X obj 17 131 unpack f f f;
#X obj 17 156 pack f f;
#X obj 109 200 pack f f;
#X obj 109 156 expr $i1 + $i2 - 1;
#X obj 22 230 outlet;
#X obj 109 230 outlet;
#X connect 0 0 5 0;
#X connect 1 0 3 0;
#X connect 2 0 4 0;
#X connect 3 0 5 0;
#X connect 3 1 5 1;
#X connect 4 0 5 0;
#X connect 4 1 5 2;
#X connect 5 0 7 0;
#X connect 5 0 6 0;
#X connect 6 0 10 0;
#X connect 6 1 9 1;
#X connect 6 2 10 1;
#X connect 7 0 8 0;
#X connect 7 1 8 1;
#X connect 8 0 11 0;
#X connect 9 0 12 0;
#X connect 10 0 9 0;
#X restore 130 161 pd args-to-rect-points;
#X text 72 220 Respond to keypresses in the fader.;
#X obj 441 380 f;
#X obj 474 387 +;
#X obj 441 443 pack f f f;
#X obj 16 506 -;
#X text 111 506 Get the key col within the fader;
#X obj 185 39 t b b b b;
#X obj 185 138 s \$0-draw;
#X obj 16 319 list split 1;
#X obj 16 63 route grid;
#X obj 441 467 oscformat monome grid led level set;
#X obj 48 409 monome/utils/iterbag;
#X msg 36 379 iter;
#X obj 16 345 t b b l b;
#X obj 16 437 f;
#X obj 16 468 spigot;
#X msg 130 437 0;
#X obj 48 437 t a b;
#X msg 98 437 1;
#X text 108 368 Track multiple presses \, with retriggering on keyups
, f 32;
#X obj 16 39 route monome draw set;
#X obj 585 590 r \$0-length;
#X obj 448 613 expr ($i2 - 1) - $i1;
#X obj 112 63 s \$0-set;
#X obj 415 540 r \$0-set;
#X obj 448 636 s \$0-current-key;
#X obj 416 589 t b a;
#X obj 416 660 s \$0-draw;
#X obj 45 506 r \$0-col;
#X obj 16 246 unpack f f f;
#X obj 16 269 swap;
#X obj 16 292 pack f f f;
#X obj 441 415 swap;
#X obj 480 227 >;
#X obj 525 227 <=;
#X obj 525 321 expr max(15 - (($i2 - $i1) * 2) \, 4);
#X obj 459 355 r \$0-row;
#X obj 502 387 r \$0-col;
#X obj 415 564 clip 0;
#X connect 0 0 33 0;
#X connect 1 0 70 1;
#X connect 1 0 71 1;
#X connect 1 0 72 1;
#X connect 2 0 66 0;
#X connect 3 0 4 0;
#X connect 4 0 5 0;
#X connect 4 0 13 0;
#X connect 5 0 4 1;
#X connect 6 0 4 1;
#X connect 7 0 28 0;
#X connect 7 1 6 0;
#X connect 7 2 1 0;
#X connect 8 0 40 2;
#X connect 9 0 8 0;
#X connect 10 0 12 0;
#X connect 11 0 72 0;
#X connect 12 0 11 0;
#X connect 13 0 38 0;
#X connect 13 1 39 0;
#X connect 13 2 70 0;
#X connect 13 3 71 0;
#X connect 13 4 11 1;
#X connect 15 0 31 0;
#X connect 15 1 14 0;
#X connect 15 2 30 0;
#X connect 16 0 57 0;
#X connect 17 0 7 0;
#X connect 18 0 1 1;
#X connect 20 0 43 0;
#X connect 21 0 43 0;
#X connect 22 0 23 0;
#X connect 24 0 25 0;
#X connect 26 0 27 0;
#X connect 28 0 3 0;
#X connect 29 0 28 1;
#X connect 32 0 34 0;
#X connect 32 1 34 1;
#X connect 33 0 2 0;
#X connect 33 1 32 0;
#X connect 34 0 35 0;
#X connect 35 0 2 1;
#X connect 36 0 35 1;
#X connect 36 1 35 2;
#X connect 38 0 69 0;
#X connect 39 0 69 1;
#X connect 40 0 47 0;
#X connect 41 0 15 0;
#X connect 43 0 44 0;
#X connect 43 1 22 0;
#X connect 43 2 24 0;
#X connect 43 3 26 0;
#X connect 45 1 50 0;
#X connect 46 0 0 0;
#X connect 47 0 19 0;
#X connect 48 0 54 0;
#X connect 49 0 48 0;
#X connect 50 0 51 0;
#X connect 50 1 49 0;
#X connect 50 2 48 0;
#X connect 50 3 53 0;
#X connect 51 0 52 0;
#X connect 52 0 41 0;
#X connect 53 0 52 1;
#X connect 54 0 51 1;
#X connect 54 1 55 0;
#X connect 55 0 52 1;
#X connect 57 0 46 0;
#X connect 57 1 44 0;
#X connect 57 2 60 0;
#X connect 58 0 59 1;
#X connect 58 0 75 2;
#X connect 59 0 62 0;
#X connect 61 0 75 0;
#X connect 63 0 64 0;
#X connect 63 1 59 0;
#X connect 65 0 41 1;
#X connect 66 0 67 0;
#X connect 66 1 67 1;
#X connect 66 2 68 2;
#X connect 67 0 68 0;
#X connect 67 1 68 1;
#X connect 68 0 45 0;
#X connect 69 0 40 0;
#X connect 69 1 40 1;
#X connect 70 0 9 0;
#X connect 71 0 10 0;
#X connect 72 0 40 2;
#X connect 73 0 38 1;
#X connect 74 0 39 1;
#X connect 75 0 63 0;
