#N canvas 223 106 754 428 12;
#X obj 16 103 r to-grid;
#X obj 16 150 s from-grid;
#X obj 355 127 tgl 18 0 empty empty empty 17 7 0 10 -262144 -1 -1 0
1;
#X obj 291 127 spigot 0;
#X obj 291 104 r from-grid;
#X text 16 81 Grid;
#X text 290 81 Debugging;
#X obj 16 127 monome grid 128;
#X obj 291 150 print From grid;
#N canvas 493 65 586 613 keyboard 0;
#X obj 456 222 s to-grid;
#X obj 14 25 r from-grid;
#X obj 455 291 s to-grid;
#X obj 453 358 s to-grid;
#X obj 452 425 s to-grid;
#X obj 453 495 s to-grid;
#X obj 453 564 s to-grid;
#X obj 14 75 table keystate;
#X obj 14 50 s to-rows;
#X obj 257 172 r to-rows;
#X obj 255 241 r to-rows;
#X obj 253 308 r to-rows;
#X obj 252 375 r to-rows;
#X obj 252 445 r to-rows;
#X obj 253 514 r to-rows;
#X msg 63 327 draw;
#X obj 63 350 s to-rows;
#X obj 63 280 t b l, f 12;
#X obj 144 556 outlet;
#X obj 63 304 del 1;
#X obj 457 166 s to-grid;
#X obj 258 116 r to-rows;
#X obj 456 107 s to-grid;
#X obj 257 57 r to-rows;
#X obj 133 26 r draw-all;
#X msg 133 50 draw;
#X obj 133 76 s to-rows;
#X obj 257 81 monome/grid/chrkbrow 3 0 13 35 keystate;
#X obj 258 141 monome/grid/chrkbrow 3 1 13 30 keystate;
#X obj 257 197 monome/grid/chrkbrow 3 2 13 25 keystate;
#X obj 255 265 monome/grid/chrkbrow 3 3 13 20 keystate;
#X obj 254 334 monome/grid/chrkbrow 3 4 13 15 keystate;
#X obj 252 400 monome/grid/chrkbrow 3 5 13 10 keystate;
#X obj 252 468 monome/grid/chrkbrow 3 6 13 5 keystate;
#X obj 253 539 monome/grid/chrkbrow 3 7 13 0 keystate;
#X connect 1 0 8 0;
#X connect 9 0 29 0;
#X connect 10 0 30 0;
#X connect 11 0 31 0;
#X connect 12 0 32 0;
#X connect 13 0 33 0;
#X connect 14 0 34 0;
#X connect 15 0 16 0;
#X connect 17 0 19 0;
#X connect 17 1 18 0;
#X connect 19 0 15 0;
#X connect 21 0 28 0;
#X connect 23 0 27 0;
#X connect 24 0 25 0;
#X connect 25 0 26 0;
#X connect 27 0 17 0;
#X connect 27 1 22 0;
#X connect 28 0 17 0;
#X connect 28 1 20 0;
#X connect 29 0 17 0;
#X connect 29 1 0 0;
#X connect 30 0 17 0;
#X connect 30 1 2 0;
#X connect 31 0 17 0;
#X connect 31 1 3 0;
#X connect 32 0 17 0;
#X connect 32 1 4 0;
#X connect 33 0 17 0;
#X connect 33 1 5 0;
#X connect 34 0 17 0;
#X connect 34 1 6 0;
#X restore 579 257 pd keyboard;
#X obj 21 293 expr ($f1 / 4) * 8192;
#X obj 21 342 line 0 5;
#X obj 21 367 bendout;
#X obj 292 301 expr ($f1 / 7) * 127;
#X obj 292 349 line 0 5;
#X obj 292 374 ctlout 1;
#X obj 579 282 unpack f f;
#X obj 579 308 + 36;
#X obj 579 354 noteout;
#X obj 646 308 * 64;
#X msg 292 325 \$1 150;
#X msg 21 317 \$1 50;
#X obj 118 150 s grid-status;
#X obj 517 100 r grid-status;
#X obj 517 123 route connected disconnected;
#X obj 517 146 s draw-all;
#X obj 504 132 bng 10 250 50 0 empty empty empty 17 7 0 10 -262144
-1 -1;
#X obj 457 302 s to-grid;
#X obj 292 253 r from-grid;
#X obj 222 195 r draw-all;
#X msg 183 195 draw;
#X obj 21 244 r from-grid;
#X obj 176 293 s to-grid;
#X obj 594 146 bng 19 250 50 0 empty empty empty 17 7 0 10 -262144
-1 -1;
#X obj 21 269 monome/grid/vbimom8 0;
#X obj 292 277 monome/grid/vfader 1 0 8;
#X text 16 18 A chromatic \, four-octave fourths keyboard for grid
128 with pitch bend and mod “wheel” \, using grid UI elements.
Connect a MIDI device to hear the results.;
#X text 616 147 Redraw;
#X text 19 221 Pitch wheel;
#X text 291 229 Mod wheel;
#X text 578 231 Keyboard;
#X connect 0 0 7 0;
#X connect 2 0 3 1;
#X connect 3 0 8 0;
#X connect 4 0 3 0;
#X connect 7 0 1 0;
#X connect 7 1 22 0;
#X connect 9 0 16 0;
#X connect 10 0 21 0;
#X connect 11 0 12 0;
#X connect 13 0 20 0;
#X connect 14 0 15 0;
#X connect 16 0 17 0;
#X connect 16 1 19 0;
#X connect 17 0 18 0;
#X connect 19 0 18 1;
#X connect 20 0 14 0;
#X connect 21 0 11 0;
#X connect 23 0 24 0;
#X connect 24 0 26 0;
#X connect 24 0 25 0;
#X connect 28 0 35 0;
#X connect 29 0 30 0;
#X connect 30 0 34 0;
#X connect 30 0 35 0;
#X connect 31 0 34 0;
#X connect 33 0 25 0;
#X connect 34 0 10 0;
#X connect 34 1 32 0;
#X connect 35 0 13 0;
#X connect 35 1 27 0;
