#N canvas 148 23 857 753 12;
#X obj 14 33 r to-grid;
#X obj 14 80 s from-grid;
#X obj 293 57 tgl 18 0 empty empty empty 17 7 0 10 -262144 -1 -1 0
1;
#X obj 229 57 spigot 0;
#X obj 229 34 r from-grid;
#X text 14 11 Grid;
#X text 228 11 Debugging;
#X obj 229 80 print From grid;
#X obj 116 80 s grid-status;
#X obj 14 56 monome grid 128;
#X obj 531 50 r from-grid;
#X obj 184 192 s to-grid;
#X floatatom 19 191 5 0 0 0 - - -;
#X msg 617 50 draw;
#X obj 617 25 r draw-all;
#X obj 183 289 s to-grid;
#X floatatom 18 288 5 0 0 0 - - -;
#X obj 617 78 s to-ui;
#X obj 19 143 r to-ui;
#X obj 18 241 r to-ui;
#N canvas 0 23 450 300 con-disconn-redraw 0;
#X obj 65 70 r grid-status;
#X obj 65 93 route connected disconnected;
#X obj 63 251 s draw-all;
#X msg 96 147 0;
#X obj 96 173 oscformat monome grid led level all;
#X obj 96 197 s to-grid;
#X obj 64 120 t b b;
#X obj 35 31 inlet;
#X connect 0 0 1 0;
#X connect 1 0 6 0;
#X connect 3 0 4 0;
#X connect 4 0 5 0;
#X connect 6 0 2 0;
#X connect 6 1 3 0;
#X connect 7 0 6 0;
#X restore 364 49 pd con-disconn-redraw;
#X obj 364 26 bng 15 250 50 0 empty empty empty 17 7 0 10 -262144 -1
-1;
#X obj 18 344 r to-ui;
#X obj 169 392 s to-grid;
#X obj 18 393 print button;
#X obj 564 199 monome/grid/vbimom8 15 0;
#X obj 729 223 s to-grid;
#X obj 564 173 r to-ui;
#X floatatom 564 223 5 0 0 0 - - -;
#X text 383 24 Redraw;
#X obj 258 517 table \$0-keystate;
#X obj 55 644 print multirow-kb;
#X obj 23 620 t b a;
#X obj 18 517 r \$0-to-all-rows;
#X msg 23 691 draw;
#X obj 23 668 del 1;
#X obj 23 715 s \$0-to-all-rows;
#X obj 139 517 s \$0-to-all-rows;
#X obj 339 602 s to-grid;
#X obj 139 493 r to-ui;
#X obj 37 596 monome/grid/chrkbrow 0 7 7 0 \$0-keystate;
#X obj 37 571 monome/grid/chrkbrow 0 6 7 5 \$0-keystate;
#X obj 37 545 monome/grid/chrkbrow 0 5 7 10 \$0-keystate;
#X obj 18 368 monome/grid/button 0 3;
#X obj 19 168 monome/grid/hfader 0 0 6;
#X obj 18 265 monome/grid/hradio 0 1 6;
#X obj 470 396 s to-grid;
#X floatatom 305 396 5 0 0 0 - - -;
#X obj 305 349 r to-ui;
#X obj 305 373 monome/grid/vfader 8 0 8;
#X obj 727 396 s to-grid;
#X floatatom 562 397 5 0 0 0 - - -;
#X obj 562 350 r to-ui;
#X obj 562 374 monome/grid/vradio 9 0 8;
#X text 199 632 A little three-row fourths chromatic keyboard in the
bottom left., f 29;
#X obj 562 419 vradio 10 1 0 8 empty empty empty 0 -8 0 10 -262144
-1 -1 0;
#X obj 284 346 vsl 15 100 0 7 0 0 empty empty empty 0 -9 0 10 -262144
-1 -1 7071 1;
#X obj 543 159 vsl 15 100 -4 4 0 0 empty empty empty 0 -9 0 10 -262144
-1 -1 4950 1;
#X obj 62 194 hsl 100 15 0 5 0 0 empty empty empty -2 -8 0 10 -262144
-1 -1 7920 1;
#X obj 59 291 hradio 15 1 0 6 empty empty empty 0 -8 0 10 -262144 -1
-1 1;
#X text 583 429 Reversed because grid/vradio considers the top higher
\, whereas pd [vradio] considers the bottom higher., f 32;
#X connect 0 0 9 0;
#X connect 2 0 3 1;
#X connect 3 0 7 0;
#X connect 4 0 3 0;
#X connect 9 0 1 0;
#X connect 9 1 8 0;
#X connect 10 0 17 0;
#X connect 12 0 58 0;
#X connect 13 0 17 0;
#X connect 14 0 13 0;
#X connect 16 0 59 0;
#X connect 18 0 44 0;
#X connect 19 0 45 0;
#X connect 21 0 20 0;
#X connect 22 0 43 0;
#X connect 25 0 28 0;
#X connect 25 1 26 0;
#X connect 27 0 25 0;
#X connect 28 0 57 0;
#X connect 32 0 35 0;
#X connect 32 1 31 0;
#X connect 33 0 40 0;
#X connect 33 0 41 0;
#X connect 33 0 42 0;
#X connect 34 0 36 0;
#X connect 35 0 34 0;
#X connect 39 0 37 0;
#X connect 40 0 32 0;
#X connect 40 1 38 0;
#X connect 41 0 32 0;
#X connect 41 1 38 0;
#X connect 42 0 32 0;
#X connect 42 1 38 0;
#X connect 43 0 24 0;
#X connect 43 1 23 0;
#X connect 44 0 12 0;
#X connect 44 1 11 0;
#X connect 45 0 16 0;
#X connect 45 1 15 0;
#X connect 47 0 56 0;
#X connect 48 0 49 0;
#X connect 49 0 47 0;
#X connect 49 1 46 0;
#X connect 51 0 55 0;
#X connect 52 0 53 0;
#X connect 53 0 51 0;
#X connect 53 1 50 0;
