#N canvas 453 47 428 307 12;
#X obj 17 26 inlet;
#X obj 122 246 outlet;
#X obj 122 177 bag;
#X obj 273 180 bag;
#X msg 122 153 flush;
#X msg 205 179 \$1 1;
#X msg 273 157 flush;
#X obj 122 211 t a a;
#X msg 320 157 clear;
#X obj 122 85 t b b b b b;
#X msg 17 85 flush;
#X msg 69 85 clear;
#X msg 204 132 0;
#X msg 236 132 1;
#X obj 205 157 spigot 0;
#X obj 17 52 route flush clear iter;
#X obj 224 247 outlet;
#X msg 273 203 \$1 1;
#X connect 0 0 15 0;
#X connect 2 0 7 0;
#X connect 3 0 17 0;
#X connect 4 0 2 0;
#X connect 5 0 3 0;
#X connect 6 0 3 0;
#X connect 7 0 1 0;
#X connect 7 1 14 0;
#X connect 8 0 3 0;
#X connect 9 0 12 0;
#X connect 9 0 16 0;
#X connect 9 1 6 0;
#X connect 9 2 4 0;
#X connect 9 3 8 0;
#X connect 9 4 13 0;
#X connect 10 0 2 0;
#X connect 11 0 2 0;
#X connect 12 0 14 1;
#X connect 13 0 14 1;
#X connect 14 0 5 0;
#X connect 15 0 10 0;
#X connect 15 1 11 0;
#X connect 15 2 9 0;
#X connect 15 3 2 0;
#X connect 17 0 2 0;
